<?xml version="1.0" encoding="utf-8"?>
<!-- Generator: Adobe Illustrator 21.1.0, SVG Export Plug-In . SVG Version: 6.00 Build 0)  -->
<svg version="1.1" id="Layer_1" xmlns="http://www.w3.org/2000/svg" xmlns:xlink="http://www.w3.org/1999/xlink" x="0px" y="0px"
	 viewBox="0 0 597.4 319" style="enable-background:new 0 0 597.4 319;" xml:space="preserve">
<style type="text/css">
	.st0{fill:#999B9D;}
</style>
<g>
	<polygon class="st0" points="298.3,0.8 265.7,70.2 276.6,70.2 298.3,24 320,70.2 330.9,70.2 	"/>
	<polygon class="st0" points="308.8,62.8 292.5,74.5 287.8,70.2 300.7,56.9 	"/>
</g>
<g>
	<polygon points="314.3,141.3 298.1,153 293.4,148.6 306.3,135.4 	"/>
	<rect x="293.4" y="159.5" width="9.9" height="65.3"/>
	<path d="M537.8,191.9c0,7.2,2.4,13.1,7.3,17.8c4.8,4.7,10.4,7,16.6,7c6.8,0,12.6-2.4,17.3-7.1c4.7-4.8,7-10.6,7-17.5
		c0-7-2.3-12.8-7-17.5c-4.6-4.7-10.3-7.1-17.1-7.1s-12.5,2.4-17.2,7.1C540.1,179.3,537.8,185.1,537.8,191.9 M527.9,191.8
		c0-9.2,3.4-17.1,10.1-23.7c6.7-6.6,14.7-9.9,24.1-9.9c9.3,0,17.2,3.3,23.9,10s10,14.6,10,24s-3.3,17.4-10,23.9
		c-6.7,6.6-14.8,9.9-24.3,9.9c-8.4,0-15.9-2.9-22.6-8.8C531.6,210.7,527.9,202.3,527.9,191.8"/>
	<polygon points="459.6,159.5 443.7,159.5 412,184.3 412,159.5 402.2,159.5 402.2,179.6 402.2,179.6 402.2,204.6 402.2,204.6 
		402.2,224.7 412,224.7 412,199.8 443.7,224.7 459.6,224.7 418.1,192.1 	"/>
	<g>
		<polygon points="33.3,155.3 0.7,224.6 11.6,224.6 33.3,178.4 54.9,224.6 65.9,224.6 		"/>
		<polygon points="43.7,217.3 27.5,229 22.8,224.6 35.7,211.4 		"/>
	</g>
	<polygon points="136.9,224.7 136.9,155.3 184.5,205.1 184.5,159.5 194.4,159.5 194.4,229 146.8,179.3 146.8,224.7 	"/>
</g>
<g>
	<path d="M298.2,292.8c-2,0-3.9,0.5-5.7,1.6c-1.8,1-3.2,2.4-4.2,4.2c-1,1.8-1.5,3.7-1.5,5.9c0,3.2,1.1,5.9,3.3,8.1
		c2.2,2.2,4.9,3.3,8,3.3c2.1,0,4-0.5,5.8-1.5s3.2-2.4,4.2-4.2c1-1.8,1.5-3.7,1.5-5.9c0-2.1-0.5-4.1-1.5-5.8c-1-1.7-2.4-3.1-4.2-4.2
		C302.2,293.3,300.3,292.8,298.2,292.8 M298.1,290.2c4.1,0,7.5,1.4,10.3,4.1s4.1,6.1,4.1,10.1s-1.4,7.3-4.1,10.1
		c-2.7,2.7-6.1,4.1-10.1,4.1s-7.4-1.4-10.1-4.1c-2.8-2.7-4.1-6.1-4.1-9.9c0-2.6,0.6-5,1.9-7.2s3-3.9,5.1-5.2
		C293.3,290.8,295.6,290.2,298.1,290.2"/>
	<path d="M197.1,293.3v9.2h4.6c1.8,0,3.1-0.2,4-0.5s1.5-0.9,2-1.6c0.5-0.8,0.7-1.6,0.7-2.5s-0.2-1.7-0.7-2.5
		c-0.5-0.7-1.1-1.3-1.9-1.6c-0.8-0.3-2.1-0.5-4-0.5H197.1z M194.4,290.6h5.4c3,0,5,0.1,6.1,0.4c1.6,0.4,2.9,1.2,3.9,2.4
		c1,1.2,1.5,2.7,1.5,4.5c0,1.5-0.3,2.8-1,3.9s-1.7,2-3,2.5c-1.3,0.6-3.1,0.9-5.3,0.9l9.7,12.5h-3.3l-9.7-12.5h-1.5v12.5h-2.7
		L194.4,290.6L194.4,290.6z"/>
	<path d="M384.3,290.6h2.7v16.3c0,1.9,0,3.1,0.1,3.6c0.1,1.1,0.4,2,0.9,2.7s1.2,1.3,2.3,1.8c1,0.5,2,0.7,3.1,0.7
		c0.9,0,1.7-0.2,2.6-0.6c0.8-0.4,1.5-0.9,2.1-1.6c0.5-0.7,1-1.5,1.2-2.4c0.2-0.7,0.3-2.1,0.3-4.2v-16.3h2.7v16.3
		c0,2.4-0.2,4.4-0.7,5.8c-0.5,1.5-1.4,2.8-2.8,3.9s-3.1,1.6-5.1,1.6c-2.2,0-4-0.5-5.6-1.6c-1.6-1-2.6-2.4-3.1-4.1
		c-0.3-1.1-0.5-2.9-0.5-5.7v-16.2H384.3z"/>
	<path d="M114.2,295.2l-2.1,2c-1.5-1.5-3.2-2.6-4.9-3.4c-1.8-0.8-3.5-1.1-5.2-1.1c-2.1,0-4.1,0.5-6,1.6c-1.9,1-3.4,2.5-4.5,4.2
		c-1,1.8-1.6,3.7-1.6,5.6c0,2,0.5,4,1.6,5.8s2.6,3.3,4.5,4.3s4,1.6,6.3,1.6c2.8,0,5.1-0.8,7-2.3c1.9-1.6,3.1-3.6,3.4-6.1h-8.6v-2.6
		h11.6c0,4.2-1.3,7.5-3.7,9.9c-2.5,2.5-5.7,3.7-9.8,3.7c-5,0-8.9-1.7-11.8-5.1c-2.2-2.6-3.4-5.6-3.4-9.1c0-2.6,0.6-4.9,1.9-7.1
		s3-3.9,5.3-5.2c2.2-1.2,4.8-1.9,7.6-1.9c2.3,0,4.4,0.4,6.5,1.2C110.3,292,112.3,293.3,114.2,295.2"/>
	<path d="M488,293.3v9.2l4.6,0.1c1.8,0,3.2-0.2,4.1-0.5s1.5-0.9,2-1.6c0.5-0.8,0.7-1.6,0.7-2.5s-0.2-1.7-0.7-2.5s-1.1-1.3-1.9-1.6
		c-0.8-0.3-2.1-0.5-3.9-0.5H488V293.3z M485.3,290.6h5.4c3.1,0,5.2,0.1,6.2,0.4c1.5,0.4,2.8,1.2,3.8,2.3c1,1.2,1.5,2.7,1.5,4.4
		c0,1.8-0.5,3.3-1.4,4.4c-1,1.2-2.3,2-3.9,2.4c-1.2,0.3-3.5,0.4-6.9,0.4h-2v12.5h-2.7V290.6z"/>
</g>
</svg>
